<mxfile host="app.diagrams.net" agent="Mozilla/5.0 (Windows NT 10.0; Win64; x64) AppleWebKit/537.36 (KHTML, like Gecko) Chrome/137.0.0.0 Safari/537.36" version="27.1.5">
  <diagram name="Page-1" id="o1LLyqBKiDftTHXychPq">
    <mxGraphModel dx="1525" dy="721" grid="1" gridSize="10" guides="1" tooltips="1" connect="1" arrows="1" fold="1" page="1" pageScale="1" pageWidth="850" pageHeight="1100" math="0" shadow="0">
      <root>
        <mxCell id="0" />
        <mxCell id="1" parent="0" />
        <mxCell id="ZixzBMUqf9H4qypQh8oG-6" value="" style="edgeStyle=orthogonalEdgeStyle;rounded=0;orthogonalLoop=1;jettySize=auto;html=1;" edge="1" parent="1" source="ZixzBMUqf9H4qypQh8oG-1" target="ZixzBMUqf9H4qypQh8oG-5">
          <mxGeometry relative="1" as="geometry" />
        </mxCell>
        <mxCell id="ZixzBMUqf9H4qypQh8oG-12" style="edgeStyle=orthogonalEdgeStyle;rounded=0;orthogonalLoop=1;jettySize=auto;html=1;exitX=0.5;exitY=1;exitDx=0;exitDy=0;entryX=0.5;entryY=0;entryDx=0;entryDy=0;" edge="1" parent="1" source="ZixzBMUqf9H4qypQh8oG-1" target="ZixzBMUqf9H4qypQh8oG-10">
          <mxGeometry relative="1" as="geometry" />
        </mxCell>
        <mxCell id="ZixzBMUqf9H4qypQh8oG-14" style="edgeStyle=orthogonalEdgeStyle;rounded=0;orthogonalLoop=1;jettySize=auto;html=1;exitX=0.5;exitY=1;exitDx=0;exitDy=0;entryX=0.5;entryY=0;entryDx=0;entryDy=0;" edge="1" parent="1" source="ZixzBMUqf9H4qypQh8oG-1" target="ZixzBMUqf9H4qypQh8oG-9">
          <mxGeometry relative="1" as="geometry" />
        </mxCell>
        <mxCell id="ZixzBMUqf9H4qypQh8oG-51" style="edgeStyle=orthogonalEdgeStyle;rounded=0;orthogonalLoop=1;jettySize=auto;html=1;exitX=0.5;exitY=1;exitDx=0;exitDy=0;" edge="1" parent="1" source="ZixzBMUqf9H4qypQh8oG-1">
          <mxGeometry relative="1" as="geometry">
            <mxPoint x="180" y="150" as="targetPoint" />
          </mxGeometry>
        </mxCell>
        <mxCell id="ZixzBMUqf9H4qypQh8oG-1" value="&lt;h3&gt;&lt;font face=&quot;Times New Roman&quot;&gt;AIRPORT&lt;/font&gt;&lt;/h3&gt;" style="rounded=1;whiteSpace=wrap;html=1;align=center;" vertex="1" parent="1">
          <mxGeometry x="120" width="120" height="60" as="geometry" />
        </mxCell>
        <mxCell id="ZixzBMUqf9H4qypQh8oG-53" style="edgeStyle=orthogonalEdgeStyle;rounded=0;orthogonalLoop=1;jettySize=auto;html=1;exitX=1;exitY=0.5;exitDx=0;exitDy=0;entryX=0.5;entryY=0;entryDx=0;entryDy=0;" edge="1" parent="1" source="ZixzBMUqf9H4qypQh8oG-5" target="ZixzBMUqf9H4qypQh8oG-25">
          <mxGeometry relative="1" as="geometry" />
        </mxCell>
        <mxCell id="ZixzBMUqf9H4qypQh8oG-5" value="&lt;b&gt;&lt;font face=&quot;Times New Roman&quot;&gt;SECURITY&lt;/font&gt;&lt;/b&gt;" style="ellipse;whiteSpace=wrap;html=1;rounded=1;direction=south;" vertex="1" parent="1">
          <mxGeometry x="330" y="150" width="80" height="80" as="geometry" />
        </mxCell>
        <mxCell id="ZixzBMUqf9H4qypQh8oG-34" style="edgeStyle=orthogonalEdgeStyle;rounded=0;orthogonalLoop=1;jettySize=auto;html=1;entryX=0.5;entryY=0;entryDx=0;entryDy=0;" edge="1" parent="1" source="ZixzBMUqf9H4qypQh8oG-9" target="ZixzBMUqf9H4qypQh8oG-33">
          <mxGeometry relative="1" as="geometry" />
        </mxCell>
        <mxCell id="ZixzBMUqf9H4qypQh8oG-9" value="&lt;b&gt;&lt;font face=&quot;Times New Roman&quot;&gt;MAINTANCE&lt;/font&gt;&lt;/b&gt;" style="ellipse;whiteSpace=wrap;html=1;aspect=fixed;" vertex="1" parent="1">
          <mxGeometry x="530" y="140" width="80" height="80" as="geometry" />
        </mxCell>
        <mxCell id="ZixzBMUqf9H4qypQh8oG-19" style="edgeStyle=orthogonalEdgeStyle;rounded=0;orthogonalLoop=1;jettySize=auto;html=1;exitX=0.5;exitY=1;exitDx=0;exitDy=0;" edge="1" parent="1" source="ZixzBMUqf9H4qypQh8oG-10" target="ZixzBMUqf9H4qypQh8oG-15">
          <mxGeometry relative="1" as="geometry" />
        </mxCell>
        <mxCell id="ZixzBMUqf9H4qypQh8oG-10" value="&lt;b&gt;&lt;font face=&quot;Times New Roman&quot;&gt;FLIGHTS&lt;/font&gt;&lt;/b&gt;" style="ellipse;whiteSpace=wrap;html=1;rounded=1;" vertex="1" parent="1">
          <mxGeometry x="-80" y="160" width="80" height="80" as="geometry" />
        </mxCell>
        <mxCell id="ZixzBMUqf9H4qypQh8oG-56" style="edgeStyle=orthogonalEdgeStyle;rounded=0;orthogonalLoop=1;jettySize=auto;html=1;exitX=0.5;exitY=1;exitDx=0;exitDy=0;entryX=0.5;entryY=0;entryDx=0;entryDy=0;" edge="1" parent="1" source="ZixzBMUqf9H4qypQh8oG-15" target="ZixzBMUqf9H4qypQh8oG-54">
          <mxGeometry relative="1" as="geometry" />
        </mxCell>
        <mxCell id="ZixzBMUqf9H4qypQh8oG-15" value="&lt;font face=&quot;Times New Roman&quot;&gt;&lt;b&gt;MODEL&lt;/b&gt;&lt;/font&gt;" style="ellipse;whiteSpace=wrap;html=1;aspect=fixed;" vertex="1" parent="1">
          <mxGeometry x="-190" y="320" width="80" height="80" as="geometry" />
        </mxCell>
        <mxCell id="ZixzBMUqf9H4qypQh8oG-36" style="edgeStyle=orthogonalEdgeStyle;rounded=0;orthogonalLoop=1;jettySize=auto;html=1;exitX=0.5;exitY=1;exitDx=0;exitDy=0;" edge="1" parent="1" source="ZixzBMUqf9H4qypQh8oG-25" target="ZixzBMUqf9H4qypQh8oG-35">
          <mxGeometry relative="1" as="geometry" />
        </mxCell>
        <mxCell id="ZixzBMUqf9H4qypQh8oG-38" style="edgeStyle=orthogonalEdgeStyle;rounded=0;orthogonalLoop=1;jettySize=auto;html=1;exitX=0.5;exitY=1;exitDx=0;exitDy=0;" edge="1" parent="1" source="ZixzBMUqf9H4qypQh8oG-25" target="ZixzBMUqf9H4qypQh8oG-37">
          <mxGeometry relative="1" as="geometry" />
        </mxCell>
        <mxCell id="ZixzBMUqf9H4qypQh8oG-25" value="&lt;font face=&quot;Times New Roman&quot;&gt;&lt;b&gt;PASSPORT&lt;/b&gt;&lt;/font&gt;" style="ellipse;whiteSpace=wrap;html=1;aspect=fixed;" vertex="1" parent="1">
          <mxGeometry x="330" y="330" width="80" height="80" as="geometry" />
        </mxCell>
        <mxCell id="ZixzBMUqf9H4qypQh8oG-43" style="edgeStyle=orthogonalEdgeStyle;rounded=0;orthogonalLoop=1;jettySize=auto;html=1;exitX=0.5;exitY=1;exitDx=0;exitDy=0;entryX=0.5;entryY=0;entryDx=0;entryDy=0;" edge="1" parent="1" source="ZixzBMUqf9H4qypQh8oG-31" target="ZixzBMUqf9H4qypQh8oG-40">
          <mxGeometry relative="1" as="geometry" />
        </mxCell>
        <mxCell id="ZixzBMUqf9H4qypQh8oG-46" style="edgeStyle=orthogonalEdgeStyle;rounded=0;orthogonalLoop=1;jettySize=auto;html=1;exitX=0.5;exitY=1;exitDx=0;exitDy=0;entryX=0.5;entryY=0;entryDx=0;entryDy=0;" edge="1" parent="1" source="ZixzBMUqf9H4qypQh8oG-31" target="ZixzBMUqf9H4qypQh8oG-45">
          <mxGeometry relative="1" as="geometry" />
        </mxCell>
        <mxCell id="ZixzBMUqf9H4qypQh8oG-31" value="&lt;b&gt;&lt;font face=&quot;Times New Roman&quot;&gt;PILOTS&lt;/font&gt;&lt;/b&gt;" style="ellipse;whiteSpace=wrap;html=1;aspect=fixed;" vertex="1" parent="1">
          <mxGeometry x="140" y="150" width="80" height="80" as="geometry" />
        </mxCell>
        <mxCell id="ZixzBMUqf9H4qypQh8oG-60" style="edgeStyle=orthogonalEdgeStyle;rounded=0;orthogonalLoop=1;jettySize=auto;html=1;exitX=0.5;exitY=1;exitDx=0;exitDy=0;entryX=0.5;entryY=0;entryDx=0;entryDy=0;" edge="1" parent="1" source="ZixzBMUqf9H4qypQh8oG-33" target="ZixzBMUqf9H4qypQh8oG-59">
          <mxGeometry relative="1" as="geometry" />
        </mxCell>
        <mxCell id="ZixzBMUqf9H4qypQh8oG-33" value="&lt;font face=&quot;Times New Roman&quot;&gt;&lt;b&gt;TYPE OF MANTENCE&lt;/b&gt;&lt;/font&gt;" style="ellipse;whiteSpace=wrap;html=1;aspect=fixed;" vertex="1" parent="1">
          <mxGeometry x="580" y="320" width="80" height="80" as="geometry" />
        </mxCell>
        <mxCell id="ZixzBMUqf9H4qypQh8oG-35" value="&lt;font face=&quot;Times New Roman&quot;&gt;&lt;b&gt;CHECK-IN&lt;/b&gt;&lt;/font&gt;" style="ellipse;whiteSpace=wrap;html=1;aspect=fixed;" vertex="1" parent="1">
          <mxGeometry x="230" y="460" width="80" height="80" as="geometry" />
        </mxCell>
        <mxCell id="ZixzBMUqf9H4qypQh8oG-37" value="&lt;font face=&quot;Times New Roman&quot;&gt;&lt;b&gt;CHECK-OUT&lt;/b&gt;&lt;/font&gt;" style="ellipse;whiteSpace=wrap;html=1;aspect=fixed;" vertex="1" parent="1">
          <mxGeometry x="440" y="460" width="80" height="80" as="geometry" />
        </mxCell>
        <mxCell id="ZixzBMUqf9H4qypQh8oG-47" style="edgeStyle=orthogonalEdgeStyle;rounded=0;orthogonalLoop=1;jettySize=auto;html=1;exitX=0.5;exitY=1;exitDx=0;exitDy=0;" edge="1" parent="1" source="ZixzBMUqf9H4qypQh8oG-40">
          <mxGeometry relative="1" as="geometry">
            <mxPoint x="10" y="740" as="targetPoint" />
          </mxGeometry>
        </mxCell>
        <mxCell id="ZixzBMUqf9H4qypQh8oG-40" value="&lt;font style=&quot;&quot; face=&quot;Times New Roman&quot;&gt;&lt;b&gt;NAME&lt;/b&gt;&lt;/font&gt;" style="ellipse;whiteSpace=wrap;html=1;aspect=fixed;" vertex="1" parent="1">
          <mxGeometry x="-30" y="560" width="80" height="80" as="geometry" />
        </mxCell>
        <mxCell id="ZixzBMUqf9H4qypQh8oG-44" value="&lt;font face=&quot;Times New Roman&quot;&gt;&lt;b&gt;LICENCE&lt;/b&gt;&lt;/font&gt;" style="ellipse;whiteSpace=wrap;html=1;aspect=fixed;" vertex="1" parent="1">
          <mxGeometry x="-30" y="740" width="80" height="80" as="geometry" />
        </mxCell>
        <mxCell id="ZixzBMUqf9H4qypQh8oG-48" style="edgeStyle=orthogonalEdgeStyle;rounded=0;orthogonalLoop=1;jettySize=auto;html=1;" edge="1" parent="1" source="ZixzBMUqf9H4qypQh8oG-45">
          <mxGeometry relative="1" as="geometry">
            <mxPoint x="130" y="740" as="targetPoint" />
          </mxGeometry>
        </mxCell>
        <mxCell id="ZixzBMUqf9H4qypQh8oG-45" value="&lt;font face=&quot;Times New Roman&quot;&gt;&lt;b&gt;HEALTH&lt;/b&gt;&lt;/font&gt;" style="ellipse;whiteSpace=wrap;html=1;aspect=fixed;" vertex="1" parent="1">
          <mxGeometry x="90" y="560" width="80" height="80" as="geometry" />
        </mxCell>
        <mxCell id="ZixzBMUqf9H4qypQh8oG-49" value="&lt;font face=&quot;Times New Roman&quot;&gt;&lt;b&gt;YEAR OF SERVICE&lt;/b&gt;&lt;/font&gt;" style="ellipse;whiteSpace=wrap;html=1;aspect=fixed;" vertex="1" parent="1">
          <mxGeometry x="90" y="740" width="80" height="80" as="geometry" />
        </mxCell>
        <mxCell id="ZixzBMUqf9H4qypQh8oG-58" style="edgeStyle=orthogonalEdgeStyle;rounded=0;orthogonalLoop=1;jettySize=auto;html=1;exitX=0.5;exitY=1;exitDx=0;exitDy=0;" edge="1" parent="1" source="ZixzBMUqf9H4qypQh8oG-54" target="ZixzBMUqf9H4qypQh8oG-55">
          <mxGeometry relative="1" as="geometry" />
        </mxCell>
        <mxCell id="ZixzBMUqf9H4qypQh8oG-54" value="&lt;font face=&quot;Times New Roman&quot;&gt;&lt;b&gt;MFD&lt;/b&gt;&lt;/font&gt;" style="ellipse;whiteSpace=wrap;html=1;aspect=fixed;" vertex="1" parent="1">
          <mxGeometry x="-190" y="470" width="80" height="80" as="geometry" />
        </mxCell>
        <mxCell id="ZixzBMUqf9H4qypQh8oG-55" value="&lt;font face=&quot;Times New Roman&quot;&gt;&lt;b&gt;ID&lt;/b&gt;&lt;/font&gt;" style="ellipse;whiteSpace=wrap;html=1;aspect=fixed;" vertex="1" parent="1">
          <mxGeometry x="-190" y="640" width="80" height="80" as="geometry" />
        </mxCell>
        <mxCell id="ZixzBMUqf9H4qypQh8oG-62" style="edgeStyle=orthogonalEdgeStyle;rounded=0;orthogonalLoop=1;jettySize=auto;html=1;exitX=0.5;exitY=1;exitDx=0;exitDy=0;entryX=0.5;entryY=0;entryDx=0;entryDy=0;" edge="1" parent="1" source="ZixzBMUqf9H4qypQh8oG-59" target="ZixzBMUqf9H4qypQh8oG-61">
          <mxGeometry relative="1" as="geometry" />
        </mxCell>
        <mxCell id="ZixzBMUqf9H4qypQh8oG-59" value="&lt;font face=&quot;Times New Roman&quot;&gt;&lt;b&gt;AIRPORT SECURTY&lt;/b&gt;&lt;/font&gt;" style="ellipse;whiteSpace=wrap;html=1;aspect=fixed;" vertex="1" parent="1">
          <mxGeometry x="580" y="470" width="80" height="80" as="geometry" />
        </mxCell>
        <mxCell id="ZixzBMUqf9H4qypQh8oG-61" value="&lt;font face=&quot;Times New Roman&quot;&gt;&lt;b&gt;FLIGHT MAINTENCE&lt;/b&gt;&lt;/font&gt;" style="ellipse;whiteSpace=wrap;html=1;aspect=fixed;" vertex="1" parent="1">
          <mxGeometry x="580" y="650" width="80" height="80" as="geometry" />
        </mxCell>
      </root>
    </mxGraphModel>
  </diagram>
</mxfile>
